%FSAX24Y24*%
%MOIN*%
G70*
G01*
G75*
G04 Layer_Color=65535*
%ADD10O,0.0787X0.0157*%
%ADD11R,0.0354X0.0276*%
G04:AMPARAMS|DCode=12|XSize=23.6mil|YSize=27.6mil|CornerRadius=3mil|HoleSize=0mil|Usage=FLASHONLY|Rotation=0.000|XOffset=0mil|YOffset=0mil|HoleType=Round|Shape=RoundedRectangle|*
%AMROUNDEDRECTD12*
21,1,0.0236,0.0217,0,0,0.0*
21,1,0.0177,0.0276,0,0,0.0*
1,1,0.0059,0.0089,-0.0108*
1,1,0.0059,-0.0089,-0.0108*
1,1,0.0059,-0.0089,0.0108*
1,1,0.0059,0.0089,0.0108*
%
%ADD12ROUNDEDRECTD12*%
%ADD13R,0.0276X0.0354*%
%ADD14R,0.0866X0.0787*%
%ADD15R,0.0512X0.0433*%
%ADD16R,0.0433X0.0512*%
%ADD17R,0.1181X0.0591*%
%ADD18R,0.0354X0.0827*%
%ADD19R,0.1260X0.0827*%
%ADD20C,0.0600*%
%ADD21C,0.0100*%
%ADD22C,0.0150*%
%ADD23R,0.0591X0.0591*%
%ADD24C,0.0591*%
%ADD25O,0.0787X0.2559*%
G04:AMPARAMS|DCode=26|XSize=157.5mil|YSize=118.1mil|CornerRadius=29.5mil|HoleSize=0mil|Usage=FLASHONLY|Rotation=0.000|XOffset=0mil|YOffset=0mil|HoleType=Round|Shape=RoundedRectangle|*
%AMROUNDEDRECTD26*
21,1,0.1575,0.0591,0,0,0.0*
21,1,0.0984,0.1181,0,0,0.0*
1,1,0.0591,0.0492,-0.0295*
1,1,0.0591,-0.0492,-0.0295*
1,1,0.0591,-0.0492,0.0295*
1,1,0.0591,0.0492,0.0295*
%
%ADD26ROUNDEDRECTD26*%
%ADD27O,0.0787X0.1969*%
%ADD28O,0.2126X0.0984*%
G04:AMPARAMS|DCode=29|XSize=236.2mil|YSize=98.4mil|CornerRadius=24.6mil|HoleSize=0mil|Usage=FLASHONLY|Rotation=0.000|XOffset=0mil|YOffset=0mil|HoleType=Round|Shape=RoundedRectangle|*
%AMROUNDEDRECTD29*
21,1,0.2362,0.0492,0,0,0.0*
21,1,0.1870,0.0984,0,0,0.0*
1,1,0.0492,0.0935,-0.0246*
1,1,0.0492,-0.0935,-0.0246*
1,1,0.0492,-0.0935,0.0246*
1,1,0.0492,0.0935,0.0246*
%
%ADD29ROUNDEDRECTD29*%
G04:AMPARAMS|DCode=30|XSize=82.7mil|YSize=82.7mil|CornerRadius=0mil|HoleSize=0mil|Usage=FLASHONLY|Rotation=270.000|XOffset=0mil|YOffset=0mil|HoleType=Round|Shape=Octagon|*
%AMOCTAGOND30*
4,1,8,-0.0207,-0.0413,0.0207,-0.0413,0.0413,-0.0207,0.0413,0.0207,0.0207,0.0413,-0.0207,0.0413,-0.0413,0.0207,-0.0413,-0.0207,-0.0207,-0.0413,0.0*
%
%ADD30OCTAGOND30*%

G04:AMPARAMS|DCode=31|XSize=82.7mil|YSize=82.7mil|CornerRadius=0mil|HoleSize=0mil|Usage=FLASHONLY|Rotation=180.000|XOffset=0mil|YOffset=0mil|HoleType=Round|Shape=Octagon|*
%AMOCTAGOND31*
4,1,8,-0.0413,0.0207,-0.0413,-0.0207,-0.0207,-0.0413,0.0207,-0.0413,0.0413,-0.0207,0.0413,0.0207,0.0207,0.0413,-0.0207,0.0413,-0.0413,0.0207,0.0*
%
%ADD31OCTAGOND31*%

%ADD32C,0.0709*%
%ADD33C,0.0600*%
%ADD34C,0.2500*%
%ADD35C,0.0700*%
%ADD36R,0.0700X0.0700*%
%ADD37R,0.0591X0.0591*%
%ADD38C,0.0500*%
%ADD39C,0.0400*%
%ADD40O,0.1083X0.0276*%
G04:AMPARAMS|DCode=41|XSize=50mil|YSize=100mil|CornerRadius=6.3mil|HoleSize=0mil|Usage=FLASHONLY|Rotation=180.000|XOffset=0mil|YOffset=0mil|HoleType=Round|Shape=RoundedRectangle|*
%AMROUNDEDRECTD41*
21,1,0.0500,0.0875,0,0,180.0*
21,1,0.0375,0.1000,0,0,180.0*
1,1,0.0125,-0.0188,0.0438*
1,1,0.0125,0.0188,0.0438*
1,1,0.0125,0.0188,-0.0438*
1,1,0.0125,-0.0188,-0.0438*
%
%ADD41ROUNDEDRECTD41*%
%ADD42C,0.0300*%
%ADD43C,0.0098*%
%ADD44C,0.0236*%
%ADD45C,0.0050*%
%ADD46C,0.0079*%
%ADD47C,0.0080*%
%ADD48C,0.0060*%
%ADD49C,0.0120*%
%ADD50R,0.1043X0.0482*%
%ADD51R,0.0580X0.2000*%
%ADD52R,0.0680X0.2100*%
%ADD53R,0.0900X0.0250*%
%ADD54R,0.1000X0.0996*%
D21*
X017030Y000100D02*
Y000856D01*
X013880Y000100D02*
X017620D01*
X013880Y004202D02*
X017620D01*
Y000100D02*
Y004202D01*
X013880Y000100D02*
Y004202D01*
X017030Y003691D02*
Y004202D01*
Y004400D02*
Y005156D01*
X013880Y004400D02*
X017620D01*
X013880Y008502D02*
X017620D01*
Y004400D02*
Y008502D01*
X013880Y004400D02*
Y008502D01*
X017030Y007991D02*
Y008502D01*
X012902Y011603D02*
X013630D01*
X016189Y011633D02*
X016898D01*
X012085Y010471D02*
Y011790D01*
X017479D01*
Y009576D02*
Y011790D01*
X012085Y009576D02*
X017479D01*
X012085D02*
Y010471D01*
X012902Y014353D02*
X013630D01*
X016189Y014383D02*
X016898D01*
X012085Y013221D02*
Y014540D01*
X017479D01*
Y012326D02*
Y014540D01*
X012085Y012326D02*
X017479D01*
X012085D02*
Y013221D01*
X012902Y017103D02*
X013630D01*
X016189Y017133D02*
X016898D01*
X012085Y015971D02*
Y017290D01*
X017479D01*
Y015076D02*
Y017290D01*
X012085Y015076D02*
X017479D01*
X012085D02*
Y015971D01*
X010662Y014031D02*
X010819Y013874D01*
X009481D02*
X009638Y014031D01*
X010662D01*
X009481Y011649D02*
X010819D01*
X009481D02*
Y013874D01*
X010819Y011649D02*
Y013874D01*
X007500Y007850D02*
X007700D01*
X007600D01*
Y008450D01*
X007500D01*
X008100Y008250D02*
X008300D01*
X008400Y008150D01*
Y007850D01*
X008100D01*
X008000Y007950D01*
X008100Y008050D01*
X008400D01*
X008600Y007850D02*
X008900D01*
X009000Y007950D01*
X008900Y008050D01*
X008700D01*
X008600Y008150D01*
X008700Y008250D01*
X009000D01*
X009499Y007850D02*
X009299D01*
X009199Y007950D01*
Y008150D01*
X009299Y008250D01*
X009499D01*
X009599Y008150D01*
Y008050D01*
X009199D01*
X009799Y008250D02*
Y007850D01*
Y008050D01*
X009899Y008150D01*
X009999Y008250D01*
X010099D01*
X012550Y005100D02*
X013083D01*
X012817Y005366D02*
Y004833D01*
X012350Y000550D02*
X012883D01*
X012617Y000816D02*
Y000283D01*
D43*
X004543Y014148D02*
G03*
X004543Y014148I-000049J000000D01*
G01*
X008900Y014778D02*
G03*
X008900Y014778I-000049J000000D01*
G01*
D44*
X005399Y013637D02*
G03*
X005399Y013637I-000118J000000D01*
G01*
D45*
X003272Y015878D02*
G03*
X003272Y015878I-001500J000000D01*
G01*
Y008201D02*
G03*
X003272Y008201I-001500J000000D01*
G01*
X010096Y006355D02*
Y006945D01*
X009600Y006355D02*
X010096D01*
X009600Y006945D02*
X010096D01*
X010322Y006886D02*
Y007004D01*
X010204Y006886D02*
Y007004D01*
X010322Y006945D01*
X010204Y006886D02*
X010322Y006945D01*
X010204D02*
X010322D01*
X002650Y010144D02*
Y013444D01*
X000050D02*
X001450D01*
X000050Y010144D02*
X001450D01*
X004306Y015000D02*
X007606D01*
Y016200D02*
Y017600D01*
X004306Y016200D02*
Y017600D01*
D46*
X010300Y007550D02*
Y008550D01*
X012300D01*
Y007550D02*
Y008550D01*
X010300Y007550D02*
X012300D01*
X004887Y009070D02*
Y014030D01*
X007013Y009070D02*
Y014030D01*
X004887D02*
X007013D01*
X004887Y009070D02*
X007013D01*
X011559Y014482D02*
Y014521D01*
X011835Y014482D02*
Y014521D01*
X005781Y014515D02*
X005821D01*
X005781Y014791D02*
X005821D01*
X011229Y007285D02*
X011269D01*
X011229Y007009D02*
X011269D01*
X003565Y010029D02*
Y010069D01*
X003841Y010029D02*
Y010069D01*
X000729Y005735D02*
X000769D01*
X000729Y005459D02*
X000769D01*
X003815Y004829D02*
Y004869D01*
X004091Y004829D02*
Y004869D01*
X000915Y004829D02*
Y004869D01*
X001191Y004829D02*
Y004869D01*
X002415Y004829D02*
Y004869D01*
X002691Y004829D02*
Y004869D01*
X003967Y016621D02*
Y016779D01*
X003533Y016621D02*
Y016779D01*
X000821Y014117D02*
X000979D01*
X000821Y013683D02*
X000979D01*
X004450Y000150D02*
X006450D01*
X004450D02*
Y006150D01*
X006450D01*
Y000150D02*
Y006150D01*
X010066Y000450D02*
Y000574D01*
X012034Y006122D02*
Y006252D01*
X010066Y005678D02*
Y006252D01*
X012034Y000450D02*
Y001024D01*
X010066Y000448D02*
X012034D01*
X011591Y005968D02*
Y006252D01*
X010548Y005968D02*
X011591D01*
X010548D02*
Y006252D01*
X010066D02*
X010548D01*
X011591D02*
X012034D01*
X003182Y012115D02*
X003221D01*
X003182Y012391D02*
X003221D01*
X003885Y015431D02*
Y015471D01*
X003609Y015431D02*
Y015471D01*
X002179Y014185D02*
X002219D01*
X002179Y013909D02*
X002219D01*
X003265Y004829D02*
Y004869D01*
X003541Y004829D02*
Y004869D01*
X000365Y004829D02*
Y004869D01*
X000641Y004829D02*
Y004869D01*
X001865Y004829D02*
Y004869D01*
X002141Y004829D02*
Y004869D01*
X011229Y006785D02*
X011269D01*
X011229Y006509D02*
X011269D01*
X004381Y006465D02*
X004421D01*
X004381Y006741D02*
X004421D01*
X008831Y015309D02*
X011469D01*
X008831Y016491D02*
X011469D01*
X008831Y015309D02*
Y016491D01*
X011469Y015309D02*
Y016491D01*
D47*
X003150Y003200D02*
X004150D01*
X003150Y002200D02*
X004150D01*
X003140Y000200D02*
X004140D01*
X003150D02*
X004150D01*
X003150D02*
X004150D01*
X003150D02*
X003150Y004200D01*
X003150Y001200D02*
X004150D01*
X004150Y004200D02*
X004150Y000200D01*
X003150Y004200D02*
X004150Y004200D01*
X000250Y003200D02*
X001250D01*
X000250Y002200D02*
X001250D01*
X000240Y000200D02*
X001240D01*
X000250D02*
X001250D01*
X000250D02*
X001250D01*
X000250D02*
X000250Y004200D01*
X000250Y001200D02*
X001250D01*
X001250Y004200D02*
X001250Y000200D01*
X000250Y004200D02*
X001250Y004200D01*
X001750Y003200D02*
X002750D01*
X001750Y002200D02*
X002750D01*
X001740Y000200D02*
X002740D01*
X001750D02*
X002750D01*
X001750D02*
X002750D01*
X001750D02*
X001750Y004200D01*
X001750Y001200D02*
X002750D01*
X002750Y004200D02*
X002750Y000200D01*
X001750Y004200D02*
X002750Y004200D01*
X007700Y005050D02*
X008700D01*
X007700Y004050D02*
X008700D01*
X007700Y000050D02*
X008700D01*
X007700D02*
X008700D01*
X007700Y001050D02*
X008700D01*
X007700D02*
X008700D01*
X007700Y002050D02*
X008700D01*
X007700D02*
X008700D01*
X007700Y000050D02*
X007700Y006050D01*
X007700Y003050D02*
X008700D01*
X008700Y006050D02*
X008700Y000050D01*
X007700Y006050D02*
X008700Y006050D01*
X007700Y000050D02*
X008700D01*
D48*
X008055Y014415D02*
X008388D01*
X008455Y014482D01*
Y014615D01*
X008388Y014682D01*
X008055D01*
X008455Y015015D02*
X008055D01*
X008255Y014815D01*
Y015081D01*
X003040Y006377D02*
Y006777D01*
X003240D01*
X003307Y006710D01*
Y006577D01*
X003240Y006510D01*
X003040D01*
X003174D02*
X003307Y006377D01*
X003440Y006710D02*
X003507Y006777D01*
X003640D01*
X003707Y006710D01*
Y006643D01*
X003640Y006577D01*
X003707Y006510D01*
Y006443D01*
X003640Y006377D01*
X003507D01*
X003440Y006443D01*
Y006510D01*
X003507Y006577D01*
X003440Y006643D01*
Y006710D01*
X003507Y006577D02*
X003640D01*
X012100Y006450D02*
Y006850D01*
X012300D01*
X012367Y006783D01*
Y006650D01*
X012300Y006583D01*
X012100D01*
X012233D02*
X012367Y006450D01*
X012500Y006850D02*
X012766D01*
Y006783D01*
X012500Y006517D01*
Y006450D01*
X002250Y005500D02*
X001850D01*
Y005700D01*
X001917Y005767D01*
X002050D01*
X002117Y005700D01*
Y005500D01*
Y005633D02*
X002250Y005767D01*
X001850Y006166D02*
X001917Y006033D01*
X002050Y005900D01*
X002183D01*
X002250Y005967D01*
Y006100D01*
X002183Y006166D01*
X002117D01*
X002050Y006100D01*
Y005900D01*
X000691Y005854D02*
X000291D01*
Y006054D01*
X000358Y006121D01*
X000491D01*
X000558Y006054D01*
Y005854D01*
Y005987D02*
X000691Y006121D01*
X000291Y006520D02*
Y006254D01*
X000491D01*
X000424Y006387D01*
Y006454D01*
X000491Y006520D01*
X000624D01*
X000691Y006454D01*
Y006321D01*
X000624Y006254D01*
X003600Y005450D02*
X003200D01*
Y005650D01*
X003267Y005717D01*
X003400D01*
X003467Y005650D01*
Y005450D01*
Y005583D02*
X003600Y005717D01*
Y006050D02*
X003200D01*
X003400Y005850D01*
Y006116D01*
X002692Y014304D02*
Y014704D01*
X002892D01*
X002959Y014637D01*
Y014504D01*
X002892Y014437D01*
X002692D01*
X002826D02*
X002959Y014304D01*
X003092Y014637D02*
X003159Y014704D01*
X003292D01*
X003359Y014637D01*
Y014571D01*
X003292Y014504D01*
X003225D01*
X003292D01*
X003359Y014437D01*
Y014371D01*
X003292Y014304D01*
X003159D01*
X003092Y014371D01*
X003950Y014200D02*
X003550D01*
Y014400D01*
X003617Y014467D01*
X003750D01*
X003817Y014400D01*
Y014200D01*
Y014333D02*
X003950Y014467D01*
Y014866D02*
Y014600D01*
X003683Y014866D01*
X003617D01*
X003550Y014800D01*
Y014667D01*
X003617Y014600D01*
X002900Y011500D02*
Y011900D01*
X003100D01*
X003167Y011833D01*
Y011700D01*
X003100Y011633D01*
X002900D01*
X003033D02*
X003167Y011500D01*
X003300D02*
X003433D01*
X003367D01*
Y011900D01*
X003300Y011833D01*
X000250Y014800D02*
Y014400D01*
X000450D01*
X000517Y014467D01*
Y014733D01*
X000450Y014800D01*
X000250D01*
X000916Y014400D02*
X000650D01*
X000916Y014667D01*
Y014733D01*
X000850Y014800D01*
X000717D01*
X000650Y014733D01*
X002950Y017000D02*
X003350D01*
Y017200D01*
X003283Y017267D01*
X003017D01*
X002950Y017200D01*
Y017000D01*
X003350Y017400D02*
Y017533D01*
Y017467D01*
X002950D01*
X003017Y017400D01*
X010067Y011383D02*
X010000Y011450D01*
X009867D01*
X009800Y011383D01*
Y011117D01*
X009867Y011050D01*
X010000D01*
X010067Y011117D01*
X010200D02*
X010267Y011050D01*
X010400D01*
X010466Y011117D01*
Y011383D01*
X010400Y011450D01*
X010267D01*
X010200Y011383D01*
Y011317D01*
X010267Y011250D01*
X010466D01*
X002467Y005767D02*
X002400Y005700D01*
Y005567D01*
X002467Y005500D01*
X002733D01*
X002800Y005567D01*
Y005700D01*
X002733Y005767D01*
X002400Y005900D02*
Y006166D01*
X002467D01*
X002733Y005900D01*
X002800D01*
X000917Y006167D02*
X000850Y006100D01*
Y005967D01*
X000917Y005900D01*
X001183D01*
X001250Y005967D01*
Y006100D01*
X001183Y006167D01*
X000850Y006566D02*
X000917Y006433D01*
X001050Y006300D01*
X001183D01*
X001250Y006367D01*
Y006500D01*
X001183Y006566D01*
X001117D01*
X001050Y006500D01*
Y006300D01*
X003795Y005664D02*
X003728Y005598D01*
Y005464D01*
X003795Y005398D01*
X004061D01*
X004128Y005464D01*
Y005598D01*
X004061Y005664D01*
X003728Y006064D02*
Y005797D01*
X003928D01*
X003861Y005931D01*
Y005997D01*
X003928Y006064D01*
X004061D01*
X004128Y005997D01*
Y005864D01*
X004061Y005797D01*
X000417Y007033D02*
X000350Y007100D01*
X000217D01*
X000150Y007033D01*
Y006767D01*
X000217Y006700D01*
X000350D01*
X000417Y006767D01*
X000750Y006700D02*
Y007100D01*
X000550Y006900D01*
X000816D01*
X003017Y009967D02*
X002950Y009900D01*
Y009767D01*
X003017Y009700D01*
X003283D01*
X003350Y009767D01*
Y009900D01*
X003283Y009967D01*
X003017Y010100D02*
X002950Y010167D01*
Y010300D01*
X003017Y010366D01*
X003083D01*
X003150Y010300D01*
Y010233D01*
Y010300D01*
X003217Y010366D01*
X003283D01*
X003350Y010300D01*
Y010167D01*
X003283Y010100D01*
X012367Y007333D02*
X012300Y007400D01*
X012167D01*
X012100Y007333D01*
Y007067D01*
X012167Y007000D01*
X012300D01*
X012367Y007067D01*
X012766Y007000D02*
X012500D01*
X012766Y007267D01*
Y007333D01*
X012700Y007400D01*
X012567D01*
X012500Y007333D01*
X006667Y014733D02*
X006600Y014800D01*
X006467D01*
X006400Y014733D01*
Y014467D01*
X006467Y014400D01*
X006600D01*
X006667Y014467D01*
X006800Y014400D02*
X006933D01*
X006867D01*
Y014800D01*
X006800Y014733D01*
X009150Y007550D02*
Y007150D01*
X009350D01*
X009417Y007217D01*
Y007483D01*
X009350Y007550D01*
X009150D01*
X009550Y007483D02*
X009617Y007550D01*
X009750D01*
X009816Y007483D01*
Y007417D01*
X009750Y007350D01*
X009683D01*
X009750D01*
X009816Y007283D01*
Y007217D01*
X009750Y007150D01*
X009617D01*
X009550Y007217D01*
X011783Y013633D02*
X011850Y013700D01*
Y013833D01*
X011783Y013900D01*
X011517D01*
X011450Y013833D01*
Y013700D01*
X011517Y013633D01*
X011783Y013500D02*
X011850Y013433D01*
Y013300D01*
X011783Y013234D01*
X011717D01*
X011650Y013300D01*
X011583Y013234D01*
X011517D01*
X011450Y013300D01*
Y013433D01*
X011517Y013500D01*
X011583D01*
X011650Y013433D01*
X011717Y013500D01*
X011783D01*
X011650Y013433D02*
Y013300D01*
X005450Y012650D02*
Y012317D01*
X005517Y012250D01*
X005650D01*
X005717Y012317D01*
Y012650D01*
X006116Y012250D02*
X005850D01*
X006116Y012517D01*
Y012583D01*
X006050Y012650D01*
X005917D01*
X005850Y012583D01*
X006516Y012250D02*
X006250D01*
X006516Y012517D01*
Y012583D01*
X006450Y012650D01*
X006316D01*
X006250Y012583D01*
X006825Y006050D02*
Y005683D01*
X007008Y005867D02*
X006642D01*
X007100Y005134D02*
Y005500D01*
X006825D01*
Y005317D01*
Y005500D01*
X006550D01*
X006825Y004950D02*
Y004584D01*
Y003851D02*
Y003484D01*
X007008Y003667D02*
X006642D01*
X007100Y003301D02*
X007008D01*
X006825Y003118D01*
X007008Y002934D01*
X007100D01*
X006825Y003118D02*
X006550D01*
X006825Y002751D02*
Y002385D01*
Y001651D02*
Y001285D01*
X007008Y001468D02*
X006642D01*
X007100Y001102D02*
X006550Y000735D01*
X007100D02*
X006550Y001102D01*
X006825Y000552D02*
Y000185D01*
D49*
X010300Y009150D02*
X010833D01*
X011899D02*
X012433D01*
X012166Y009416D02*
Y008883D01*
X011833Y017500D02*
X011300D01*
Y017100D01*
X011567D01*
X011300D01*
Y016700D01*
X011250Y013000D02*
Y012866D01*
X011517Y012600D01*
X011783Y012866D01*
Y013000D01*
X011517Y012600D02*
Y012200D01*
X011200Y010400D02*
X011733Y009600D01*
Y010400D02*
X011200Y009600D01*
D50*
X011070Y006209D02*
D03*
D51*
X013590Y005400D02*
D03*
D52*
X013540Y001150D02*
D03*
D53*
X011850Y008675D02*
D03*
D54*
X003650Y003702D02*
D03*
X000750D02*
D03*
X002250D02*
D03*
X008200Y005552D02*
D03*
M02*
