M48
;Layer_Color=9474304
;FILE_FORMAT=2:4
INCH
;TYPE=PLATED
T1F00S00C0.0230
T2F00S00C0.0280
T3F00S00C0.0300
T4F00S00C0.0354
T5F00S00C0.0380
T6F00S00C0.0394
T8F00S00C0.0400
T9F00S00C0.0402
T10F00S00C0.0512
T11F00S00C0.1220
%
T01
X000500Y005100
X002050
X003450Y005150
X004250Y005650
X005450Y006050
X005200Y010750
X005250Y011250
X003750Y010850
X003700Y009700
X002947Y012253
X003650Y013300
X003150Y013900
X004200Y014300
X008650Y014000
X008900Y013500
X009350Y011400
X009250Y010900
X009100Y010400
Y009850
Y009350
X009050Y008850
X008100Y009450
X007995Y010000
X008200Y007500
X007450Y007600
X007000Y008000
X007800Y006700
X008900Y005200
X010450Y003200
X010500Y002100
X010450Y001150
X012200Y001550
X012300Y002600
X012200Y003550
X006900Y003000
X006450Y004000
X008450Y014500
X008350Y015000
Y015550
X008300Y016100
X008000Y017200
T02
X001150Y006650
X002450Y005650
X004450Y007500
X003750Y010300
X002650Y011650
X001650
X000650
Y009650
X003200Y013000
X006650Y013650
X012150Y012650
X015650Y011650
X017150Y008650
Y004650
X016150
X013150
Y006650
X012150
X012650Y007650
X009650
X013150Y002650
X013650Y001650
X013150Y000650
X017150
X007150
X006650Y015650
X015150Y014650
X016150
T03
X001222Y007249
X002322
X002872Y008201
X002322Y009154
X001222
X000672Y008201
X001222Y014926
X002322
X002872Y015878
X002322Y016831
X001222
X000672Y015878
T04
X004950Y000650
X005950
Y001650
X004950
Y002650
X005950
Y003650
X004950
Y004650
X005950
Y005650
X004950
X010800Y008050
X011800
T05
X001026Y010859
X001050Y012644
X006806Y016600
X005020Y016624
T06
X002050Y010344
Y013244
X007406Y015600
X004506
T08
X000750Y000700
X000750Y001700
X000750Y002700
X000750Y003700
X002250
X002250Y002700
X002250Y001700
X002250Y000700
X003650
X003650Y001700
X003650Y002700
X003650Y003700
X008200Y003550
X008200Y002550
X008200Y001550
X008200Y000550
X008200Y004550
X008200Y005550
T09
X012931Y010511
X013916
X014900
X015884
X016869
Y013261
X015884
X014900
X013916
X012931
Y016011
X013916
X014900
X015884
X016869
T10
X015750Y001100
Y003100
Y005400
Y007400
T11
X001772Y008201
Y015878
M30
